<svg width="14" height="14" viewBox="0 0 14 14" fill="none" xmlns="http://www.w3.org/2000/svg">
<path fill-rule="evenodd" clip-rule="evenodd" d="M13.6018 1.35498L1.7356 13.2212C1.57576 13.3811 1.25623 13.3207 1.02192 13.0864C0.787608 12.8521 0.727236 12.5325 0.887077 12.3727L12.7533 0.506451C12.9132 0.34661 13.2327 0.406983 13.467 0.641295C13.7013 0.875608 13.7617 1.19514 13.6018 1.35498Z" fill="#ffffff"/>
<path fill-rule="evenodd" clip-rule="evenodd" d="M1.73584 0.506556L13.6021 12.3728C13.7619 12.5326 13.7015 12.8522 13.4672 13.0865C13.2329 13.3208 12.9134 13.3812 12.7535 13.2213L0.887311 1.35508C0.72747 1.19524 0.787842 0.875713 1.02215 0.6414C1.25647 0.407088 1.576 0.346715 1.73584 0.506556Z" fill="#ffffff"/>
</svg>
