<svg width="18" height="15" viewBox="0 0 18 15" fill="none" xmlns="http://www.w3.org/2000/svg">
<path fill-rule="evenodd" clip-rule="evenodd" d="M17.5814 2.28155H0.418605C0.187418 2.28155 0 2.09414 0 1.86294C0 1.63175 0.187418 1.44434 0.418605 1.44434H17.5814C17.8126 1.44434 18 1.63175 18 1.86294C18 2.09414 17.8126 2.28155 17.5814 2.28155" fill="#27303C"/>
<path fill-rule="evenodd" clip-rule="evenodd" d="M17.5814 7.77276H0.418605C0.187418 7.77276 0 7.58534 0 7.35415C0 7.12296 0.187418 6.93555 0.418605 6.93555H17.5814C17.8126 6.93555 18 7.12296 18 7.35415C18 7.58534 17.8126 7.77276 17.5814 7.77276" fill="#27303C"/>
<path fill-rule="evenodd" clip-rule="evenodd" d="M17.5814 13.2649H0.418605C0.187418 13.2649 0 13.0775 0 12.8463C0 12.6152 0.187418 12.4277 0.418605 12.4277H17.5814C17.8126 12.4277 18 12.6152 18 12.8463C18 13.0775 17.8126 13.2649 17.5814 13.2649" fill="#27303C"/>
<mask id="mask0_1028_10973" style="mask-type:alpha" maskUnits="userSpaceOnUse" x="1" y="0" width="5" height="4">
<path fill-rule="evenodd" clip-rule="evenodd" d="M1.97656 0.0078125H5.68665V3.7179H1.97656V0.0078125Z" fill="white"/>
</mask>
<g mask="url(#mask0_1028_10973)">
<path fill-rule="evenodd" clip-rule="evenodd" d="M3.8316 0.0078125C3.3361 0.0078125 2.87026 0.200772 2.51989 0.551145C2.16952 0.901525 1.97656 1.36736 1.97656 1.86286C1.97656 2.35836 2.16952 2.8242 2.51989 3.17457C2.87026 3.52495 3.3361 3.7179 3.8316 3.7179C4.3271 3.7179 4.79294 3.52495 5.14331 3.17457C5.49369 2.8242 5.68665 2.35836 5.68665 1.86286C5.68665 1.36736 5.49369 0.901525 5.14331 0.551145C4.79294 0.200772 4.3271 0.0078125 3.8316 0.0078125" fill="#27303C"/>
</g>
<path fill-rule="evenodd" clip-rule="evenodd" d="M15.0183 6.04235C14.6679 5.69198 14.2021 5.49902 13.7066 5.49902C13.2111 5.49902 12.7453 5.69198 12.3949 6.04235C12.0445 6.39273 11.8516 6.85858 11.8516 7.35407C11.8516 7.84956 12.0445 8.31541 12.3949 8.66578C12.7453 9.01615 13.2111 9.20911 13.7066 9.20911C14.2021 9.20911 14.6679 9.01615 15.0183 8.66578C15.3687 8.31541 15.5616 7.84956 15.5616 7.35407C15.5616 6.85858 15.3687 6.39273 15.0183 6.04235" fill="#27303C"/>
<path fill-rule="evenodd" clip-rule="evenodd" d="M8.1402 10.9912C7.6447 10.9912 7.17886 11.1842 6.82849 11.5345C6.47812 11.8849 6.28516 12.3508 6.28516 12.8462C6.28516 13.3418 6.47812 13.8076 6.82849 14.158C7.17886 14.5083 7.6447 14.7013 8.1402 14.7013C8.6357 14.7013 9.10154 14.5083 9.45192 14.158C9.80228 13.8076 9.99524 13.3418 9.99524 12.8462C9.99524 12.3508 9.80228 11.8849 9.45192 11.5345C9.10154 11.1842 8.6357 10.9912 8.1402 10.9912" fill="#27303C"/>
</svg>
