<svg width="17" height="17" viewBox="0 0 17 17" fill="none" xmlns="http://www.w3.org/2000/svg">
<path d="M8.53 1.50094C12.4341 1.50094 15.6766 4.71027 15.6766 8.6475C15.6766 12.6178 12.4672 15.7941 8.53 15.7941C4.55969 15.7941 1.38344 12.6178 1.38344 8.6475C1.38344 4.71027 4.55969 1.50094 8.53 1.50094ZM8.53 0.442187C3.99723 0.442187 0.324687 4.14781 0.324687 8.6475C0.324687 13.1803 3.99723 16.8528 8.53 16.8528C13.0297 16.8528 16.7353 13.1803 16.7353 8.6475C16.7353 4.14781 13.0297 0.442187 8.53 0.442187ZM8.13297 4.4125C7.90137 4.4125 7.73594 4.61102 7.73594 4.84262L7.96754 10.4011C7.96754 10.5996 8.16605 10.765 8.36457 10.765H8.66234C8.86086 10.765 9.05937 10.5996 9.05937 10.4011L9.29098 4.84262C9.29098 4.61102 9.12555 4.4125 8.89395 4.4125H8.13297ZM8.53 11.4267C8.00062 11.4267 7.60359 11.8568 7.60359 12.3531C7.60359 12.8825 8.00062 13.2795 8.53 13.2795C9.02629 13.2795 9.45641 12.8825 9.45641 12.3531C9.45641 11.8568 9.02629 11.4267 8.53 11.4267Z" fill="#27303C"/>
</svg>
