<svg width="16" height="16" viewBox="0 0 16 16" fill="none" xmlns="http://www.w3.org/2000/svg">
<path fill-rule="evenodd" clip-rule="evenodd" d="M15.5 7.74998C15.5 12.0311 12.0299 15.5 7.74998 15.5C3.47008 15.5 0 12.0311 0 7.74998C0 3.47134 3.47008 0 7.74998 0C12.0299 0 15.5 3.47134 15.5 7.74998ZM1.5 7.74998C1.5 11.2053 4.29586 14 7.74998 14C11.2053 14 14 11.204 14 7.74998C14 4.29595 11.2028 1.5 7.74998 1.5C4.29598 1.5 1.5 4.29702 1.5 7.74998ZM8.39326 8.74998C8.59306 8.74998 8.75782 8.5933 8.7678 8.39369L8.98029 4.1437C8.99101 3.92953 8.82023 3.74999 8.60575 3.74999H6.89421C6.67973 3.74999 6.50896 3.92953 6.51967 4.1437L6.73216 8.39369C6.74214 8.5933 6.9069 8.74998 7.1067 8.74998H8.39326ZM9.06248 10.75C9.06248 11.4737 8.4737 12.0625 7.74998 12.0625C7.02626 12.0625 6.43748 11.4737 6.43748 10.75C6.43748 10.0263 7.02626 9.43748 7.74998 9.43748C8.4737 9.43748 9.06248 10.0263 9.06248 10.75Z" fill="#FDCB6C"/>
</svg>
