<svg width="53" height="58" viewBox="0 0 53 58" fill="none" xmlns="http://www.w3.org/2000/svg">
<rect x="15.9668" y="18.5928" width="25.4621" height="25.4621" fill="white"/>
<path fill-rule="evenodd" clip-rule="evenodd" d="M41.4284 18.1436H15.9663L15.959 22.0008L20.0812 26.2997V32.2474L15.9663 27.9927V44.062H41.4284V40.1754L35.3702 33.7933V39.0786H31.3732V28.8687C31.3732 26.5426 33.3754 25.7402 34.9507 27.3965L41.4284 34.2202V18.1436ZM24.9469 36.4212H20.9498L20.9425 26.2113C20.9425 23.8779 22.9447 23.0829 24.52 24.7391L30.5561 31.0917V37.0248L24.9469 31.1359V36.4212Z" fill="#FF8C00"/>
<path fill-rule="evenodd" clip-rule="evenodd" d="M42.0686 1.55931C41.7918 2.99772 41.6451 4.44852 41.4983 5.89969C41.368 7.18884 41.2376 8.47829 41.0159 9.75959C40.9397 9.85214 40.8232 9.88027 40.7022 9.90949L40.7022 9.9095C40.6596 9.91978 40.6164 9.9302 40.5743 9.94361C40.405 9.74487 40.162 9.45778 40.2945 9.1707C40.4228 8.21537 40.4681 7.26004 40.5134 6.30584V6.3058C40.5901 4.68667 40.6667 3.07077 41.1484 1.46361C41.2664 1.16505 41.5643 0.977394 41.8845 0.999865L42.0686 1.55931ZM8.75218 19.2407C8.96399 19.694 9.02953 20.1716 9.0961 20.6568C9.14522 21.0147 9.19489 21.3767 9.30427 21.7361C9.88162 22.1455 10.2775 22.7631 10.4084 23.4586C10.3503 23.7015 10.1483 23.7588 9.93006 23.8207L9.93003 23.8207C9.84404 23.8451 9.75554 23.8702 9.67232 23.9076L8.61968 23.304C8.10226 23.9365 7.86561 24.7528 7.96454 25.5639C8.0097 25.6346 8.04858 25.7168 8.08801 25.8002C8.19642 26.0294 8.30907 26.2676 8.56816 26.3C8.61626 26.2805 8.67266 26.2508 8.73378 26.2186L8.7338 26.2186C8.97192 26.0933 9.28162 25.9303 9.45149 26.1822C9.66496 26.4988 9.39996 26.9183 9.17177 27.0435C8.77577 27.3072 8.26709 27.3326 7.84677 27.1097C7.21069 26.6401 6.81677 25.9116 6.77204 25.1222C6.74582 23.9528 7.22942 22.8298 8.09704 22.0453C8.05144 21.4033 7.97034 20.7644 7.85413 20.1314C7.86996 20.0206 7.85268 19.9078 7.83553 19.7959C7.80484 19.5957 7.77455 19.3981 7.9351 19.2186C7.99995 19.204 8.06624 19.1834 8.13229 19.1628L8.13232 19.1627L8.13234 19.1627L8.13236 19.1627L8.13238 19.1627L8.13241 19.1627L8.13243 19.1627L8.13245 19.1627L8.13247 19.1627L8.13248 19.1627C8.36628 19.0898 8.59725 19.0178 8.75218 19.2186V19.2407ZM18.4872 9.96383C18.7497 9.78656 19.0182 9.60523 18.675 9.22223L18.7118 9.21486C18.5924 9.08292 18.4355 9.13868 18.2914 9.18988C18.2666 9.19867 18.2423 9.20732 18.2186 9.21486C15.9615 11.3755 15.9652 14.2623 15.9689 17.0934V17.0934C15.9703 18.1495 15.9716 19.1977 15.8557 20.1976C15.9401 20.7295 15.6711 21.0653 15.3902 21.416C15.1812 21.6769 14.9656 21.946 14.884 22.3103C14.7598 22.639 15.0199 22.9823 15.2037 23.2249L15.2079 23.2304C15.5407 23.3487 15.9105 23.2935 16.1943 23.0832C16.4886 22.6747 16.6988 22.2118 16.8126 21.7214C17.171 21.5281 17.5506 21.3438 17.9353 21.157C19.8653 20.2197 21.9236 19.2201 22.0832 16.7158L22.0677 16.6228C21.9383 15.8386 21.7711 14.826 20.9643 14.5075C20.1021 14.2526 19.1696 14.4964 18.5425 15.1406C18.1187 15.4732 18.0341 16.0815 18.3511 16.5171C18.7113 16.6233 18.8919 16.3818 19.0728 16.1398C19.1803 15.9961 19.2878 15.8523 19.4332 15.781C19.767 15.4529 20.2782 15.3868 20.6845 15.619C21.1608 16.2645 21.2127 17.1296 20.817 17.8274C20.0586 19.2013 18.6924 20.133 17.1365 20.3375L16.9451 20.2344C16.9434 19.4635 16.8936 18.6853 16.8438 17.9062L16.8438 17.9062C16.6756 15.278 16.5068 12.6398 18.1818 10.2381C18.2367 10.133 18.3612 10.0489 18.4872 9.96383ZM44.6523 1.50778C44.7247 1.84703 44.4468 1.94446 44.1621 2.04431C43.9834 2.10696 43.8021 2.17056 43.7027 2.29542C42.9641 3.06398 42.7529 4.19804 43.1654 5.18098C43.313 5.62187 43.6167 5.99361 44.0193 6.22625C44.3091 6.44867 44.6251 6.26843 44.9116 6.10506C45.2509 5.91156 45.5487 5.74171 45.7123 6.2925C45.2167 6.9068 44.431 7.20988 43.6512 7.0875C42.6139 6.52054 41.9658 5.43557 41.9582 4.25348C41.8751 3.40024 42.2031 2.55842 42.8415 1.98625C42.9251 1.94042 43.0173 1.88149 43.1161 1.81834L43.1162 1.81832L43.1162 1.8183C43.557 1.53667 44.1292 1.17107 44.6523 1.50778ZM39.8052 5.54912C39.9441 4.87878 40.0824 4.21153 39.9265 3.51C39.73 3.38058 39.4752 3.38058 39.2787 3.51C38.8577 4.00849 38.828 4.6247 38.7985 5.23731V5.23735C38.7831 5.55651 38.7678 5.87468 38.6972 6.17473C38.702 6.23732 38.6991 6.31006 38.6961 6.38646C38.6852 6.66048 38.6725 6.98162 39.0064 7.0507C39.2125 7.05806 39.5584 7.02125 39.6173 6.77834C39.6368 6.36195 39.7211 5.95499 39.8052 5.54916L39.8052 5.54912ZM33.9125 6.84459C34.4475 7.16509 34.7809 7.73746 34.7958 8.36098C34.7148 9.09752 34.2113 9.71899 33.5076 9.95098C33.3456 10.4707 33.2455 11.0029 33.1463 11.5304L33.1463 11.5304L33.1463 11.5304L33.1463 11.5304L33.1463 11.5305L33.1462 11.5305C33.0291 12.1534 32.9131 12.7699 32.6979 13.3518C32.6731 13.9406 32.6641 14.5311 32.655 15.1216V15.1217V15.1217V15.1218V15.1218V15.1219C32.6265 16.9895 32.5979 18.8567 32.0722 20.6688C32.0228 20.6688 31.9677 20.6886 31.9129 20.7083C31.8041 20.7475 31.6966 20.7862 31.6379 20.6688C31.7484 18.9589 31.7889 17.2416 31.8294 15.5207V15.5206C31.8699 13.8039 31.9104 12.0836 32.0207 10.3632C32.0764 10.2032 32.0954 10.0297 32.1145 9.85549C32.1535 9.50058 32.1927 9.14279 32.5433 8.89098C32.7459 8.74544 32.9894 8.74372 33.2117 8.74214C33.5628 8.73965 33.8609 8.73754 33.8609 8.16959C33.7137 7.67639 33.1248 7.62486 32.742 7.62486C31.3798 8.01146 30.3748 9.16665 30.1804 10.5693C30.1216 10.5693 30.0619 10.5906 30.0047 10.611C29.8972 10.6494 29.7986 10.6846 29.7313 10.5693C29.275 9.50931 29.989 8.47139 30.6 7.74264C31.4391 7.0507 32.8083 6.425 33.8977 6.88139L33.9125 6.84459ZM38.0499 8.07113C37.9246 7.33377 37.8002 6.60181 37.6225 5.88764V5.90973C37.328 5.45334 36.533 5.26931 36.2607 5.85084C36.175 6.22328 36.0942 6.60974 36.0119 7.00363C35.5278 9.31892 34.99 11.8914 33.1027 13.3886C33.0765 13.4885 33.0934 13.5949 33.1494 13.6817C33.2054 13.7685 33.2953 13.8277 33.3972 13.845C35.0234 13.2393 35.6787 11.4927 36.2838 9.87986C36.4949 9.31715 36.6999 8.77072 36.9379 8.29473C37.1784 8.66778 37.3199 9.15972 37.4648 9.66341C37.6258 10.2232 37.791 10.7975 38.1009 11.2392C38.2997 11.2392 38.5794 11.2024 38.6751 10.9889C38.382 10.0259 38.2151 9.04381 38.0499 8.07113ZM27.6776 11.0993C28.1973 11.897 28.2589 12.9093 27.8395 13.764C27.2987 14.6952 26.3104 15.2759 25.2337 15.2951C24.8776 15.2399 24.5151 15.2399 24.159 15.2951C23.7888 15.9145 23.6376 16.5703 23.4883 17.2181C23.3377 17.8715 23.1889 18.5168 22.8193 19.1082C22.6547 19.2912 22.3746 19.3108 22.1862 19.1524C21.9714 18.8436 22.1021 18.5647 22.2343 18.2827C22.3196 18.1008 22.4055 17.9177 22.3997 17.7243C22.4354 17.4621 22.4515 17.1878 22.4677 16.9106V16.9105V16.9105V16.9105C22.5217 15.9891 22.5774 15.0365 23.364 14.3971C23.8077 14.2044 24.3493 14.2126 24.8849 14.2207C25.9041 14.2361 26.9017 14.2511 27.1623 12.8807C27.1807 12.4356 27.0484 11.9973 26.7869 11.6367C25.9772 11.1214 24.9834 11.6735 24.2915 12.1372C23.7073 12.665 23.2645 13.3305 23.0033 14.0732C22.9554 14.0732 22.9033 14.0902 22.8515 14.107C22.7362 14.1445 22.6226 14.1814 22.5616 14.029C22.144 13.2299 22.6912 12.5011 23.17 11.8634L23.202 11.8207C24.2252 10.6871 26.4409 9.73014 27.6187 11.0846L27.6776 11.0993ZM12.5484 20.4317C12.5154 19.4015 12.4779 18.2323 11.5936 17.6139V17.6581C10.7403 17.3538 9.80004 17.7847 9.47357 18.6297C9.31817 19.3186 9.55944 20.0367 10.0993 20.4921C10.5727 20.3958 10.5344 20.0677 10.4922 19.7057C10.4569 19.4035 10.4189 19.0776 10.6734 18.8432C10.7454 18.7704 10.8434 18.7294 10.9458 18.7294C11.0481 18.7294 11.1462 18.7704 11.2182 18.8432C11.9479 20.4004 11.5934 22.0441 11.2522 23.6263L11.2522 23.6264C11.2079 23.8317 11.1639 24.036 11.1225 24.2389C11.1494 24.4423 11.0402 24.6383 10.9332 24.8306C10.7768 25.1115 10.6249 25.3842 10.909 25.6596C11.1912 25.6801 11.4602 25.537 11.6009 25.2915C12.1587 23.9242 12.487 22.4742 12.5726 21C12.5608 20.8188 12.5547 20.6277 12.5484 20.4317ZM5.52066 27.971C5.98071 27.1708 5.90786 26.1712 5.33663 25.4461C5.00538 26.2706 5.13052 27.6544 5.52066 27.971ZM7.45663 19.5278L7.36093 19.1965L7.1401 19.064C6.34774 19.267 5.92239 20.1108 5.58938 20.7714C5.54805 20.8534 5.50814 20.9326 5.46913 21.0074C5.26781 21.6208 5.02178 22.2187 4.73302 22.7961C4.1728 22.3621 3.51636 22.0692 2.81913 21.9422C1.98981 21.945 1.18571 22.2277 0.537183 22.7446C0.486237 22.8404 0.407648 22.9367 0.32656 23.0361C0.114741 23.2958 -0.114129 23.5764 0.0881557 23.9224C0.598004 24.0335 0.910215 23.7534 1.23791 23.4594C1.53947 23.1889 1.85414 22.9065 2.34802 22.9065C3.28067 22.9263 4.12787 23.4544 4.55635 24.2831C4.39055 25.2552 4.32886 26.2423 4.37232 27.2275C4.42405 27.3999 4.45783 27.5823 4.49143 27.7638C4.58695 28.2796 4.68107 28.7879 5.18204 29.0383C5.22596 29.0383 5.27281 29.0398 5.3215 29.0413C5.59925 29.0501 5.93637 29.0607 6.12427 28.8101C7.30204 27.3158 6.55857 25.2842 5.70468 23.8708C6.06025 22.3412 6.65127 20.876 7.45663 19.5278Z" fill="white"/>
<path fill-rule="evenodd" clip-rule="evenodd" d="M8.28764 53.4628L7.63986 56.8415C7.58105 57.019 7.42142 57.1438 7.235 57.1581H6.24125C6.15143 57.1579 6.06714 57.1147 6.01465 57.0418C5.96217 56.9689 5.94789 56.8752 5.97625 56.79L6.55042 53.7646L6.5546 53.7487C6.60454 53.5599 6.75872 52.9769 6.09403 52.9769H4.92361C4.54083 52.9769 4.1875 52.6678 4.1875 51.9685V50.5625H5.78486V50.9747C5.78486 51.8728 5.78486 51.9906 6.29278 51.9906H7.44847C8.60417 51.9906 8.30236 53.3303 8.26556 53.4628H8.28764ZM43.1057 53.4628V56.871C43.0786 57.0403 42.9382 57.1686 42.7671 57.1801H41.8617C41.6683 57.1683 41.5187 57.0058 41.5231 56.8121V53.7646C41.5231 53.1315 41.5231 53.0285 40.7869 53.0285H39.4987V51.9906H41.7071C43.0026 51.9906 43.1278 52.4249 43.1278 53.4628H43.1057ZM34.5889 55.995C34.5895 56.1048 34.5067 56.1971 34.3975 56.2085H34.081V57.2096H35.855C36.0484 57.1978 36.1979 57.0353 36.1936 56.8415V53.0285H36.7899C37.4524 53.0285 37.526 53.1904 37.526 53.7646V56.8194C37.5256 57.0144 37.6773 57.1758 37.8719 57.1875H38.7774C38.9667 57.1796 39.1161 57.0237 39.116 56.8342V53.2567C39.116 52.6899 38.954 51.9979 37.6879 51.9979H34.2576V53.0506H34.5889V55.995ZM15.1114 57.2169C14.9288 57.2101 14.7802 57.0678 14.7654 56.8857V52.0274H16.326V56.2085H18.3356C19.0717 56.2085 19.2263 56.1349 19.2263 55.3178V51.9906H20.7868V55.384C20.7868 56.9593 20.0507 57.1801 19.0349 57.1801H15.1114V57.2169ZM9.70097 57.2169H10.6064V57.1801C10.7998 57.1683 10.9493 57.0058 10.945 56.8121V52.9917H11.9829C12.2406 53.1094 12.3731 53.426 12.3731 54.0738V55.2368C12.3657 55.8846 12.2921 56.1937 12.0124 56.1937C11.8781 56.2009 11.7463 56.1561 11.6443 56.0686V57.136C11.8748 57.2444 12.1258 57.3021 12.3804 57.3053C13.8011 57.3053 13.9631 56.3851 13.9631 55.2074V54.1106C13.9631 52.2408 13.3079 51.9979 12.3436 51.9979H8.99431V52.9917H9.36236V56.8636C9.36585 57.0517 9.51324 57.2055 9.70097 57.2169ZM26.4328 53.264V56.8415C26.4329 57.0311 26.2835 57.187 26.0942 57.1949H25.1888C24.9953 57.183 24.8458 57.0205 24.8501 56.8268V53.7646C24.8501 53.1904 24.7765 53.0285 24.114 53.0285H23.5178V56.8415C23.5221 57.0353 23.3726 57.1978 23.1792 57.2096H22.2443C22.0566 57.1981 21.9092 57.0443 21.9057 56.8562V52.9917H21.5818V51.9979H25.0268C26.2929 51.9979 26.4549 52.6899 26.4549 53.2567L26.4328 53.264ZM31.5487 56.871V53.4701L31.5267 53.4628C31.5267 52.4249 31.4015 51.9906 30.106 51.9906H27.2351V53.0285H29.2079C29.944 53.0285 29.944 53.1315 29.944 53.7646V56.8121C29.9437 57.007 30.0954 57.1684 30.29 57.1801H31.2175C31.3882 57.1708 31.5276 57.0406 31.5487 56.871ZM43.6063 51.9906H45.7483C46.6551 51.9967 47.4019 52.7048 47.4561 53.61V56.2085H47.7285V57.2096H43.5842V56.2085H45.844V54.0001C45.8565 53.465 45.4368 53.019 44.9018 52.999H43.6063V51.9906ZM52.8518 56.8415V53.264V53.2493C52.8518 52.6825 52.6899 51.9979 51.4237 51.9979H48.0008V52.9917H48.3247V56.8562C48.3282 57.0443 48.4756 57.1981 48.6633 57.2096H49.5982C49.7928 57.1979 49.9445 57.0365 49.9442 56.8415V53.0285H50.5331C51.1956 53.0285 51.2692 53.1904 51.2692 53.7646V56.8268C51.2649 57.0205 51.4144 57.183 51.6078 57.1949H52.5132C52.7026 57.187 52.852 57.0311 52.8518 56.8415ZM17.1283 51.9906H18.4018V55.4724C18.4036 55.5478 18.3832 55.622 18.3429 55.6858C18.2843 55.7263 18.2154 55.7493 18.1442 55.7521H17.1283V51.9906ZM28.8325 56.8636V54.1989L27.2425 54.1842V56.8268C27.2421 57.0218 27.3939 57.1832 27.5885 57.1949H28.4939C28.6736 57.1844 28.8181 57.0431 28.8325 56.8636Z" fill="white"/>
</svg>
