<svg width="16" height="12" viewBox="0 0 16 12" fill="none" xmlns="http://www.w3.org/2000/svg">
<path fill-rule="evenodd" clip-rule="evenodd" d="M5.62499 0H1.5C0.671873 0 0 0.671873 0 1.5V10.5C0 11.3281 0.671873 12 1.5 12H5.62499C5.83122 12 5.99999 11.8312 5.99999 11.625V11.375C5.99999 11.1687 5.83122 11 5.62499 11H1.5C1.225 11 0.999998 10.775 0.999998 10.5V1.5C0.999998 1.225 1.225 0.999998 1.5 0.999998H5.62499C5.83122 0.999998 5.99999 0.831236 5.99999 0.624999V0.374999C5.99999 0.168762 5.83122 0 5.62499 0ZM10.75 0.609374C10.6031 0.462493 10.3656 0.462493 10.2187 0.609374L9.99686 0.831236C9.84998 0.978117 9.84998 1.21563 9.99686 1.36248L14.1219 5.46874H5.37499C5.16875 5.46874 4.99999 5.6375 4.99999 5.84374V6.15624C4.99999 6.36247 5.16875 6.53123 5.37499 6.53123H14.1219L9.99998 10.6375C9.8531 10.7843 9.8531 11.0219 9.99998 11.1687L10.2218 11.3906C10.3687 11.5375 10.6062 11.5375 10.7531 11.3906L15.8937 6.26561C16.0406 6.11873 16.0406 5.88124 15.8937 5.73436L10.75 0.609374Z" fill="#FFD492"/>
</svg>
