<svg width="42" height="42" viewBox="0 0 42 42" fill="none" xmlns="http://www.w3.org/2000/svg">
<g filter="url(#filter0_d_1771_8629)">
<rect x="5" y="3" width="32" height="32" rx="16" fill="white"/>
<rect x="4.5" y="2.5" width="33" height="33" rx="16.5" stroke="#FA6500"/>
</g>
<path d="M26.5 18H22V13.5C22 13.25 21.75 13 21.5 13H20.5C20.2188 13 20 13.25 20 13.5V18H15.5C15.2188 18 15 18.25 15 18.5V19.5C15 19.7812 15.2188 20 15.5 20H20V24.5C20 24.7812 20.2188 25 20.5 25H21.5C21.75 25 22 24.7812 22 24.5V20H26.5C26.75 20 27 19.7812 27 19.5V18.5C27 18.25 26.75 18 26.5 18Z" fill="#FA6500"/>
<defs>
<filter id="filter0_d_1771_8629" x="0" y="0" width="42" height="42" filterUnits="userSpaceOnUse" color-interpolation-filters="sRGB">
<feFlood flood-opacity="0" result="BackgroundImageFix"/>
<feColorMatrix in="SourceAlpha" type="matrix" values="0 0 0 0 0 0 0 0 0 0 0 0 0 0 0 0 0 0 127 0" result="hardAlpha"/>
<feOffset dy="2"/>
<feGaussianBlur stdDeviation="2"/>
<feColorMatrix type="matrix" values="0 0 0 0 0.141176 0 0 0 0 0.298039 0 0 0 0 0.658824 0 0 0 0.0131392 0"/>
<feBlend mode="normal" in2="BackgroundImageFix" result="effect1_dropShadow_1771_8629"/>
<feBlend mode="normal" in="SourceGraphic" in2="effect1_dropShadow_1771_8629" result="shape"/>
</filter>
</defs>
</svg>
