<svg width="18" height="19" viewBox="0 0 18 19" fill="none" xmlns="http://www.w3.org/2000/svg">
<path fill-rule="evenodd" clip-rule="evenodd" d="M13.3418 12.6461L17.8769 17.1812C18.0422 17.3464 18.0422 17.6136 17.8769 17.7789L17.5289 18.1269C17.3636 18.2922 17.0964 18.2922 16.9312 18.1269L12.3961 13.5918C12.3187 13.5109 12.273 13.4054 12.273 13.2929V12.9343C10.9687 14.1367 9.22849 14.875 7.31248 14.875C3.27303 14.875 0 11.6019 0 7.56248C0 3.52303 3.27303 0.25 7.31248 0.25C11.3519 0.25 14.625 3.52303 14.625 7.56248C14.625 9.47849 13.8867 11.2187 12.6808 12.523H13.0429C13.1554 12.523 13.2609 12.5652 13.3418 12.6461ZM1.125 7.56248C1.125 10.9832 3.89179 13.75 7.31248 13.75C10.7332 13.75 13.5 10.9832 13.5 7.56248C13.5 4.14179 10.7332 1.375 7.31248 1.375C3.89179 1.375 1.125 4.14179 1.125 7.56248Z" fill="#FA6500"/>
</svg>
