<svg width="128" height="111" viewBox="0 0 128 111" fill="none" xmlns="http://www.w3.org/2000/svg">
<path fill-rule="evenodd" clip-rule="evenodd" d="M116.248 53.011L46.6778 105.368C34.3105 114.676 16.7573 112.17 7.47176 99.7712L5.60953 97.2848C-3.67519 84.886 -1.17514 67.2891 11.1921 57.9804L80.7622 5.62373C93.1303 -3.68409 110.684 -1.17865 119.968 11.2202L121.83 13.7066C131.116 26.1062 128.616 43.7031 116.248 53.011Z" fill="#F6FAFF"/>
<path fill-rule="evenodd" clip-rule="evenodd" d="M88.5128 26.6494H37.8625C34.3677 26.6494 31.5312 29.8296 31.5312 33.7481V90.5378C31.5312 94.4563 34.3677 97.6366 37.8625 97.6366H88.5128C92.0077 97.6366 94.8441 94.4563 94.8441 90.5378V33.7481C94.8441 29.8296 92.0077 26.6494 88.5128 26.6494Z" fill="#5F90FF"/>
<rect x="37.2891" y="34.3232" width="51.8014" height="55.6386" rx="3.042" fill="#294C6A"/>
<path fill-rule="evenodd" clip-rule="evenodd" d="M58.2121 75.2419L49.3496 66.3794C48.6126 65.6386 48.6126 64.4306 49.3496 63.6899L52.0353 61.0041C52.7723 60.2672 53.9841 60.2672 54.7211 61.0041L59.5569 65.84L73.2553 52.1416C73.9922 51.4046 75.204 51.4046 75.941 52.1416L78.6267 54.8273C79.3637 55.5643 79.3637 56.7761 78.6267 57.5131L60.8979 75.2419C60.1609 75.9789 58.9491 75.9789 58.2121 75.2419Z" fill="url(#paint0_radial_1771_9224)"/>
<path fill-rule="evenodd" clip-rule="evenodd" d="M77.9637 23.9917H72.7835C72.7835 19.1002 68.9191 15.1367 64.15 15.1367C59.3808 15.1367 55.5164 19.1002 55.5164 23.9917H50.3362C48.4299 23.9917 46.8828 25.5785 46.8828 27.5336V36.3886C46.8828 37.3662 47.6564 38.1596 48.6095 38.1596H79.6904C80.6435 38.1596 81.4171 37.3662 81.4171 36.3886V27.5336C81.4171 25.5785 79.87 23.9917 77.9637 23.9917Z" fill="#FE8B00"/>
<rect x="50.7188" y="30.4854" width="26.86" height="3.83714" rx="1.521" fill="white"/>
<defs>
<radialGradient id="paint0_radial_1771_9224" cx="0" cy="0" r="1" gradientUnits="userSpaceOnUse" gradientTransform="translate(61.8451 32.6438) rotate(-90) scale(69.6351 92.1562)">
<stop stop-color="#FFC264"/>
<stop offset="1" stop-color="#F47216"/>
</radialGradient>
</defs>
</svg>
