<svg width="18" height="21" viewBox="0 0 18 21" fill="none" xmlns="http://www.w3.org/2000/svg">
<path fill-rule="evenodd" clip-rule="evenodd" d="M8.99998 10.5C6.23826 10.5 3.99999 8.26171 3.99999 5.49999C3.99999 2.73827 6.23826 0.5 8.99998 0.5C11.7617 0.5 14 2.73827 14 5.49999C14 8.26171 11.7617 10.5 8.99998 10.5ZM17.75 17C17.75 14.1015 15.3984 11.75 12.5 11.75C12.0085 11.75 11.6289 11.8701 11.2025 12.005C10.6562 12.1778 10.0332 12.375 8.99998 12.375C7.96751 12.375 7.3459 12.1781 6.80036 12.0054C6.37376 11.8703 5.99367 11.75 5.5 11.75C2.60156 11.75 0.25 14.1015 0.25 17V18.625C0.25 19.6601 1.08984 20.5 2.125 20.5H15.875C16.9101 20.5 17.75 19.6601 17.75 18.625V17ZM16.5 17V18.625C16.5 18.9687 16.2187 19.25 15.875 19.25H2.125C1.78125 19.25 1.5 18.9687 1.5 18.625V17C1.5 14.7929 3.29298 13 5.5 13C5.79388 13 6.08719 13.0921 6.44863 13.2055C7.0288 13.3877 7.78453 13.625 8.99998 13.625C10.2126 13.625 10.9687 13.3879 11.5496 13.2057C11.9118 13.0922 12.2059 13 12.5 13C14.707 13 16.5 14.7929 16.5 17ZM5.24999 5.49999C5.24999 3.43357 6.93356 1.75 8.99998 1.75C11.0664 1.75 12.75 3.43357 12.75 5.49999C12.75 7.5664 11.0664 9.24998 8.99998 9.24998C6.93356 9.24998 5.24999 7.5664 5.24999 5.49999Z" fill="white"/>
</svg>
