<svg width="88" height="88" viewBox="0 0 88 88" fill="none" xmlns="http://www.w3.org/2000/svg">
<g filter="url(#filter0_d_1771_8633)">
<circle cx="44" cy="36" r="17" fill="white"/>
<circle cx="44" cy="36" r="17" stroke="#3469E1" stroke-opacity="0.1"/>
</g>
<path d="M44.1585 39.7742C44.5865 39.7742 44.9383 39.4367 44.9561 39.0091L45.4219 27.8317C45.4408 27.378 45.0781 27 44.6242 27H43.0953C42.6413 27 42.2788 27.378 42.2976 27.8317L42.7633 39.0091C42.7812 39.4367 43.1331 39.7742 43.561 39.7742H44.1585Z" fill="#FA6500"/>
<path d="M43.8629 44.8313C44.8917 44.8313 45.7258 43.9972 45.7258 42.9684C45.7258 41.9395 44.8917 41.1055 43.8629 41.1055C42.8341 41.1055 42 41.9395 42 42.9684C42 43.9972 42.8341 44.8313 43.8629 44.8313Z" fill="#FA6500"/>
<defs>
<filter id="filter0_d_1771_8633" x="0.5" y="0.5" width="87" height="87" filterUnits="userSpaceOnUse" color-interpolation-filters="sRGB">
<feFlood flood-opacity="0" result="BackgroundImageFix"/>
<feColorMatrix in="SourceAlpha" type="matrix" values="0 0 0 0 0 0 0 0 0 0 0 0 0 0 0 0 0 0 127 0" result="hardAlpha"/>
<feOffset dy="8"/>
<feGaussianBlur stdDeviation="13"/>
<feColorMatrix type="matrix" values="0 0 0 0 0.0789722 0 0 0 0 0.193103 0 0 0 0 0.449898 0 0 0 0.0303486 0"/>
<feBlend mode="normal" in2="BackgroundImageFix" result="effect1_dropShadow_1771_8633"/>
<feBlend mode="normal" in="SourceGraphic" in2="effect1_dropShadow_1771_8633" result="shape"/>
</filter>
</defs>
</svg>
